<mxfile host="app.diagrams.net" modified="2021-03-05T10:26:18.718Z" agent="5.0 (Windows NT 10.0; WOW64) AppleWebKit/537.36 (KHTML, like Gecko) Chrome/70.0.3538.25 Safari/537.36 Core/1.70.3676.400 QQBrowser/10.5.3738.400" etag="CfZIaIbBdPHzrKk_ZfQ2" version="14.4.4" type="github">
  <diagram id="wZCVhKpZt4oQ8H5f8HPc" name="第 1 页">
    <mxGraphModel dx="1102" dy="611" grid="1" gridSize="10" guides="1" tooltips="1" connect="1" arrows="1" fold="1" page="1" pageScale="1" pageWidth="827" pageHeight="1169" background="#ffffff" math="0" shadow="0">
      <root>
        <mxCell id="0" />
        <mxCell id="1" parent="0" />
        <mxCell id="ecL6i-uEt44txTF5Zmjk-5" value="" style="edgeStyle=orthogonalEdgeStyle;rounded=0;orthogonalLoop=1;jettySize=auto;html=1;fontSize=18;" edge="1" parent="1" source="ecL6i-uEt44txTF5Zmjk-3" target="ecL6i-uEt44txTF5Zmjk-4">
          <mxGeometry relative="1" as="geometry" />
        </mxCell>
        <mxCell id="ecL6i-uEt44txTF5Zmjk-3" value="启动应用" style="strokeWidth=2;html=1;shape=mxgraph.flowchart.start_1;whiteSpace=wrap;fontSize=18;" vertex="1" parent="1">
          <mxGeometry x="280" y="80" width="120" height="80" as="geometry" />
        </mxCell>
        <mxCell id="ecL6i-uEt44txTF5Zmjk-9" value="" style="edgeStyle=orthogonalEdgeStyle;rounded=0;orthogonalLoop=1;jettySize=auto;html=1;fontSize=18;" edge="1" parent="1" source="ecL6i-uEt44txTF5Zmjk-4" target="ecL6i-uEt44txTF5Zmjk-8">
          <mxGeometry relative="1" as="geometry" />
        </mxCell>
        <mxCell id="ecL6i-uEt44txTF5Zmjk-4" value="接入鉴权" style="whiteSpace=wrap;html=1;fontSize=18;strokeWidth=2;" vertex="1" parent="1">
          <mxGeometry x="280" y="210" width="120" height="60" as="geometry" />
        </mxCell>
        <mxCell id="ecL6i-uEt44txTF5Zmjk-10" style="edgeStyle=orthogonalEdgeStyle;rounded=0;orthogonalLoop=1;jettySize=auto;html=1;fontSize=18;entryX=1;entryY=0.5;entryDx=0;entryDy=0;" edge="1" parent="1" source="ecL6i-uEt44txTF5Zmjk-8" target="ecL6i-uEt44txTF5Zmjk-4">
          <mxGeometry relative="1" as="geometry">
            <mxPoint x="420" y="240" as="targetPoint" />
            <Array as="points">
              <mxPoint x="580" y="365" />
              <mxPoint x="580" y="240" />
            </Array>
          </mxGeometry>
        </mxCell>
        <mxCell id="ecL6i-uEt44txTF5Zmjk-14" value="" style="edgeStyle=orthogonalEdgeStyle;rounded=0;orthogonalLoop=1;jettySize=auto;html=1;fontSize=18;" edge="1" parent="1" source="ecL6i-uEt44txTF5Zmjk-8" target="ecL6i-uEt44txTF5Zmjk-13">
          <mxGeometry relative="1" as="geometry" />
        </mxCell>
        <mxCell id="ecL6i-uEt44txTF5Zmjk-8" value="鉴权结果" style="rhombus;whiteSpace=wrap;html=1;fontSize=18;strokeWidth=2;" vertex="1" parent="1">
          <mxGeometry x="285" y="310" width="110" height="110" as="geometry" />
        </mxCell>
        <mxCell id="ecL6i-uEt44txTF5Zmjk-33" style="edgeStyle=orthogonalEdgeStyle;rounded=0;orthogonalLoop=1;jettySize=auto;html=1;exitX=0.75;exitY=1;exitDx=0;exitDy=0;fontSize=18;" edge="1" parent="1" source="ecL6i-uEt44txTF5Zmjk-12">
          <mxGeometry relative="1" as="geometry">
            <mxPoint x="435" y="350" as="targetPoint" />
          </mxGeometry>
        </mxCell>
        <mxCell id="ecL6i-uEt44txTF5Zmjk-12" value="失败" style="text;html=1;strokeColor=none;fillColor=none;align=center;verticalAlign=middle;whiteSpace=wrap;rounded=0;fontSize=18;" vertex="1" parent="1">
          <mxGeometry x="400" y="320" width="40" height="20" as="geometry" />
        </mxCell>
        <mxCell id="ecL6i-uEt44txTF5Zmjk-18" value="" style="edgeStyle=orthogonalEdgeStyle;rounded=0;orthogonalLoop=1;jettySize=auto;html=1;fontSize=18;" edge="1" parent="1" source="ecL6i-uEt44txTF5Zmjk-19">
          <mxGeometry relative="1" as="geometry">
            <mxPoint x="340" y="630" as="targetPoint" />
          </mxGeometry>
        </mxCell>
        <mxCell id="ecL6i-uEt44txTF5Zmjk-13" value="配置连接参数、&lt;br&gt;建立 MQTT 长连接" style="whiteSpace=wrap;html=1;fontSize=18;strokeWidth=2;" vertex="1" parent="1">
          <mxGeometry x="256.25" y="460" width="167.5" height="80" as="geometry" />
        </mxCell>
        <mxCell id="ecL6i-uEt44txTF5Zmjk-15" value="成功" style="text;html=1;strokeColor=none;fillColor=none;align=center;verticalAlign=middle;whiteSpace=wrap;rounded=0;fontSize=18;" vertex="1" parent="1">
          <mxGeometry x="360" y="420" width="40" height="20" as="geometry" />
        </mxCell>
        <mxCell id="ecL6i-uEt44txTF5Zmjk-20" style="edgeStyle=orthogonalEdgeStyle;rounded=0;orthogonalLoop=1;jettySize=auto;html=1;fontSize=18;entryX=0;entryY=0.5;entryDx=0;entryDy=0;" edge="1" parent="1" source="ecL6i-uEt44txTF5Zmjk-19" target="ecL6i-uEt44txTF5Zmjk-4">
          <mxGeometry relative="1" as="geometry">
            <mxPoint x="200" y="240" as="targetPoint" />
            <Array as="points">
              <mxPoint x="200" y="635" />
              <mxPoint x="200" y="240" />
            </Array>
          </mxGeometry>
        </mxCell>
        <mxCell id="ecL6i-uEt44txTF5Zmjk-23" value="" style="edgeStyle=orthogonalEdgeStyle;rounded=0;orthogonalLoop=1;jettySize=auto;html=1;fontSize=18;" edge="1" parent="1" source="ecL6i-uEt44txTF5Zmjk-19" target="ecL6i-uEt44txTF5Zmjk-22">
          <mxGeometry relative="1" as="geometry" />
        </mxCell>
        <mxCell id="ecL6i-uEt44txTF5Zmjk-21" value="失败" style="text;html=1;strokeColor=none;fillColor=none;align=center;verticalAlign=middle;whiteSpace=wrap;rounded=0;fontSize=18;" vertex="1" parent="1">
          <mxGeometry x="240" y="600" width="40" height="20" as="geometry" />
        </mxCell>
        <mxCell id="ecL6i-uEt44txTF5Zmjk-28" value="" style="edgeStyle=orthogonalEdgeStyle;rounded=0;orthogonalLoop=1;jettySize=auto;html=1;fontSize=18;" edge="1" parent="1" source="ecL6i-uEt44txTF5Zmjk-22" target="ecL6i-uEt44txTF5Zmjk-27">
          <mxGeometry relative="1" as="geometry" />
        </mxCell>
        <mxCell id="ecL6i-uEt44txTF5Zmjk-22" value="上报在线状态、&lt;br&gt;订阅平台主题" style="whiteSpace=wrap;html=1;fontSize=18;strokeWidth=2;" vertex="1" parent="1">
          <mxGeometry x="270" y="730" width="140" height="60" as="geometry" />
        </mxCell>
        <mxCell id="ecL6i-uEt44txTF5Zmjk-24" value="成功" style="text;html=1;strokeColor=none;fillColor=none;align=center;verticalAlign=middle;whiteSpace=wrap;rounded=0;fontSize=18;" vertex="1" parent="1">
          <mxGeometry x="360" y="690" width="40" height="20" as="geometry" />
        </mxCell>
        <mxCell id="ecL6i-uEt44txTF5Zmjk-29" style="edgeStyle=orthogonalEdgeStyle;rounded=0;orthogonalLoop=1;jettySize=auto;html=1;fontSize=18;" edge="1" parent="1" source="ecL6i-uEt44txTF5Zmjk-27">
          <mxGeometry relative="1" as="geometry">
            <mxPoint x="280" y="240" as="targetPoint" />
            <Array as="points">
              <mxPoint x="130" y="870" />
              <mxPoint x="130" y="240" />
            </Array>
          </mxGeometry>
        </mxCell>
        <mxCell id="ecL6i-uEt44txTF5Zmjk-32" value="" style="edgeStyle=orthogonalEdgeStyle;rounded=0;orthogonalLoop=1;jettySize=auto;html=1;fontSize=18;" edge="1" parent="1" source="ecL6i-uEt44txTF5Zmjk-27" target="ecL6i-uEt44txTF5Zmjk-31">
          <mxGeometry relative="1" as="geometry" />
        </mxCell>
        <mxCell id="ecL6i-uEt44txTF5Zmjk-27" value="等待平台下发指令" style="whiteSpace=wrap;html=1;fontSize=18;strokeWidth=2;" vertex="1" parent="1">
          <mxGeometry x="262.5" y="840" width="155" height="60" as="geometry" />
        </mxCell>
        <mxCell id="ecL6i-uEt44txTF5Zmjk-30" value="断网/定时重连" style="text;html=1;strokeColor=none;fillColor=none;align=center;verticalAlign=middle;whiteSpace=wrap;rounded=0;fontSize=18;" vertex="1" parent="1">
          <mxGeometry x="136.25" y="840" width="120" height="20" as="geometry" />
        </mxCell>
        <mxCell id="ecL6i-uEt44txTF5Zmjk-37" value="" style="edgeStyle=orthogonalEdgeStyle;rounded=0;orthogonalLoop=1;jettySize=auto;html=1;fontSize=18;" edge="1" parent="1" source="ecL6i-uEt44txTF5Zmjk-31" target="ecL6i-uEt44txTF5Zmjk-36">
          <mxGeometry relative="1" as="geometry" />
        </mxCell>
        <mxCell id="ecL6i-uEt44txTF5Zmjk-31" value="接收到平台指令" style="whiteSpace=wrap;html=1;fontSize=18;strokeWidth=2;" vertex="1" parent="1">
          <mxGeometry x="265" y="940" width="150" height="60" as="geometry" />
        </mxCell>
        <mxCell id="ecL6i-uEt44txTF5Zmjk-19" value="连接结果" style="rhombus;whiteSpace=wrap;html=1;fontSize=18;strokeWidth=2;" vertex="1" parent="1">
          <mxGeometry x="285" y="580" width="110" height="110" as="geometry" />
        </mxCell>
        <mxCell id="ecL6i-uEt44txTF5Zmjk-34" value="" style="edgeStyle=orthogonalEdgeStyle;rounded=0;orthogonalLoop=1;jettySize=auto;html=1;fontSize=18;" edge="1" parent="1" source="ecL6i-uEt44txTF5Zmjk-13" target="ecL6i-uEt44txTF5Zmjk-19">
          <mxGeometry relative="1" as="geometry">
            <mxPoint x="340.0999999999999" y="540" as="sourcePoint" />
            <mxPoint x="340" y="630" as="targetPoint" />
          </mxGeometry>
        </mxCell>
        <mxCell id="ecL6i-uEt44txTF5Zmjk-36" value="根据指令进行相关操作" style="whiteSpace=wrap;html=1;fontSize=18;strokeWidth=2;" vertex="1" parent="1">
          <mxGeometry x="245" y="1040" width="190" height="60" as="geometry" />
        </mxCell>
      </root>
    </mxGraphModel>
  </diagram>
</mxfile>
